<?xml version="1.0" encoding="iso-8859-1"?>
<!-- Generator: Adobe Illustrator 19.0.0, SVG Export Plug-In . SVG Version: 6.00 Build 0)  -->
<svg version="1.1" id="Capa_1" xmlns="http://www.w3.org/2000/svg" xmlns:xlink="http://www.w3.org/1999/xlink" x="0px" y="0px"
	 viewBox="0 0 390.656 390.656" style="enable-background:new 0 0 390.656 390.656;" xml:space="preserve">
<polyline style="fill:#FFFFFF;" points="22.016,282.031 22.016,159.151 383.829,159.151 383.829,370.777 22.016,370.777 
	22.016,343.472 "/>
<path style="fill:#602F75;" d="M383.829,377.604H22.016c-3.77,0-6.827-3.057-6.827-6.827v-27.307c0-3.77,3.057-6.827,6.827-6.827
	s6.827,3.057,6.827,6.827v20.48h348.16V165.977H28.843v116.053c0,3.77-3.057,6.827-6.827,6.827s-6.827-3.057-6.827-6.827v-122.88
	c0-3.77,3.057-6.827,6.827-6.827h361.813c3.77,0,6.827,3.057,6.827,6.827v211.627C390.656,374.547,387.599,377.604,383.829,377.604z
	"/>
<g>
	<circle style="fill:#00E7FF;" cx="271.189" cy="264.961" r="64.853"/>
	<path style="fill:#00E7FF;" d="M271.189,336.644c-39.523,0-71.68-32.157-71.68-71.68s32.157-71.68,71.68-71.68
		s71.68,32.157,71.68,71.68S310.712,336.644,271.189,336.644z M271.189,206.937c-31.997,0-58.027,26.03-58.027,58.027
		s26.03,58.027,58.027,58.027s58.027-26.03,58.027-58.027S303.186,206.937,271.189,206.937z"/>
</g>
<circle style="fill:#EA3457;" cx="206.336" cy="264.961" r="64.853"/>
<path style="fill:#602F75;" d="M206.336,336.644c-39.523,0-71.68-32.157-71.68-71.68s32.157-71.68,71.68-71.68
	s71.68,32.157,71.68,71.68S245.859,336.644,206.336,336.644z M206.336,206.937c-31.997,0-58.027,26.03-58.027,58.027
	s26.03,58.027,58.027,58.027s58.027-26.03,58.027-58.027S238.333,206.937,206.336,206.937z"/>
<polygon style="fill:#FFFFFF;" points="237.056,264.964 185.856,235.405 185.856,294.525 "/>
<path style="fill:#602F75;" d="M185.856,301.352c-1.179,0-2.357-0.304-3.413-0.913c-2.113-1.22-3.413-3.473-3.413-5.914v-59.121
	c0-2.441,1.3-4.693,3.413-5.914s4.714-1.22,6.827,0l51.2,29.559c2.113,1.22,3.413,3.473,3.413,5.914s-1.3,4.693-3.413,5.914
	l-51.2,29.559C188.213,301.048,187.035,301.352,185.856,301.352z M192.683,247.228v35.473l30.72-17.737L192.683,247.228z"/>
<rect x="8.174" y="61.977" transform="matrix(-0.9702 0.2422 -0.2422 -0.9702 386.9013 131.0027)" style="fill:#FFFFFF;" width="354.449" height="54.612"/>
<path style="fill:#602F75;" d="M20.055,165.539c-1.227,0-2.444-0.329-3.514-0.973c-1.553-0.934-2.669-2.444-3.11-4.2l-13.227-52.99
	c-0.913-3.657,1.314-7.363,4.97-8.277l343.9-85.84c1.756-0.444,3.613-0.164,5.166,0.77c1.553,0.934,2.673,2.444,3.11,4.2
	l13.223,52.99c0.913,3.661-1.314,7.363-4.97,8.277l-343.895,85.84C21.163,165.472,20.608,165.539,20.055,165.539z M15.106,110.692
	l9.919,39.743l330.65-82.533l-9.917-39.743L15.106,110.692z"/>
<polygon style="fill:#FFE600;" points="79.667,143.832 39.926,153.751 59.817,92.497 99.558,82.578 "/>
<path style="fill:#602F75;" d="M39.926,160.577c-1.867,0-3.683-0.766-4.99-2.169c-1.693-1.812-2.27-4.403-1.504-6.767l19.889-61.254
	c0.727-2.237,2.557-3.944,4.84-4.514l39.743-9.919c2.41-0.604,4.949,0.154,6.647,1.966c1.69,1.812,2.266,4.407,1.5,6.767
	l-19.893,61.254c-0.727,2.237-2.557,3.944-4.84,4.514l-39.74,9.919C41.032,160.511,40.475,160.577,39.926,160.577z M65.138,98.206
	l-14.916,45.94l24.12-6.019l14.92-45.94L65.138,98.206z M79.665,143.832h0.067H79.665z"/>
<polygon style="fill:#FFE600;" points="159.148,123.992 119.407,133.911 139.298,72.657 179.039,62.738 "/>
<path style="fill:#602F75;" d="M119.409,140.738c-1.867,0-3.683-0.766-4.99-2.169c-1.693-1.812-2.27-4.403-1.504-6.767
	l19.889-61.254c0.727-2.237,2.557-3.944,4.84-4.514l39.74-9.919c2.396-0.597,4.953,0.15,6.644,1.966
	c1.693,1.812,2.27,4.403,1.504,6.767l-19.89,61.254c-0.727,2.237-2.557,3.944-4.84,4.514l-39.74,9.919
	C120.516,140.671,119.958,140.738,119.409,140.738z M144.623,78.366l-14.916,45.94l24.12-6.019l14.916-45.94L144.623,78.366z
	 M159.148,123.992h0.067H159.148z"/>
<polygon style="fill:#FFE600;" points="238.629,104.153 198.888,114.073 218.779,52.819 258.521,42.899 "/>
<path style="fill:#602F75;" d="M198.888,120.897c-1.867,0-3.683-0.766-4.99-2.169c-1.693-1.812-2.27-4.403-1.504-6.767l19.89-61.254
	c0.727-2.237,2.557-3.944,4.84-4.514l39.743-9.919c2.406-0.597,4.953,0.15,6.647,1.966c1.69,1.812,2.266,4.407,1.5,6.767
	l-19.893,61.254c-0.727,2.237-2.557,3.944-4.84,4.514l-39.74,9.919C199.996,120.831,199.439,120.897,198.888,120.897z
	 M224.102,58.526l-14.916,45.94l24.12-6.019l14.92-45.94L224.102,58.526z M238.629,104.152h0.067H238.629z"/>
<polygon style="fill:#FFE600;" points="318.111,84.313 278.369,94.233 298.26,32.979 338.002,23.059 "/>
<path style="fill:#602F75;" d="M278.369,101.057c-1.87,0-3.683-0.766-4.994-2.169c-1.69-1.812-2.266-4.407-1.5-6.767l19.893-61.254
	c0.727-2.237,2.557-3.944,4.84-4.514l39.74-9.919c2.406-0.606,4.953,0.15,6.644,1.966c1.693,1.812,2.27,4.403,1.504,6.764
	l-19.889,61.257c-0.727,2.239-2.557,3.946-4.84,4.516l-39.743,9.917C279.475,100.991,278.919,101.057,278.369,101.057z
	 M303.585,38.686l-14.92,45.94l24.124-6.016l14.916-45.943L303.585,38.686z M318.112,84.315h0.067H318.112z"/>
<g>
</g>
<g>
</g>
<g>
</g>
<g>
</g>
<g>
</g>
<g>
</g>
<g>
</g>
<g>
</g>
<g>
</g>
<g>
</g>
<g>
</g>
<g>
</g>
<g>
</g>
<g>
</g>
<g>
</g>
</svg>
